<svg id="Layer_1" data-name="Layer 1" xmlns="http://www.w3.org/2000/svg" viewBox="0 0 356 65.08"><defs><style>.cls-1{fill:#fdc233;}.cls-2{fill:#f15a24;}.cls-3{font-size:39.2px;fill:#fff;stroke:#000;stroke-miterlimit:10;stroke-width:1.28px;font-family:ShowcardGothic-Reg, Showcard Gothic;}</style></defs><title>Home</title><rect class="cls-1" x="1.91" y="1.91" width="352.17" height="61.25" rx="13.4" ry="13.4"/><path class="cls-2" d="M1122.69,510.83a11.5,11.5,0,0,1,11.48,11.48v34.45a11.5,11.5,0,0,1-11.48,11.48H797.31a11.5,11.5,0,0,1-11.48-11.48V522.31a11.5,11.5,0,0,1,11.48-11.48h325.38m0-3.83H797.31A15.36,15.36,0,0,0,782,522.31v34.45a15.36,15.36,0,0,0,15.31,15.31h325.38A15.36,15.36,0,0,0,1138,556.76V522.31A15.36,15.36,0,0,0,1122.69,507Z" transform="translate(-782 -507)"/><text class="cls-3" transform="translate(126.64 46.9) scale(1.02 1)">Home</text></svg>