<svg id="Layer_1" data-name="Layer 1" xmlns="http://www.w3.org/2000/svg" viewBox="0 0 684 656"><defs><style>.cls-1{fill:#f0d393;}.cls-2,.cls-4{fill:#fff;}.cls-3{fill:#7cc35b;}.cls-4{font-size:83.14px;stroke:#000;stroke-miterlimit:10;font-family:ShowcardGothic-Reg, Showcard Gothic;}</style></defs><title>Menü</title><rect class="cls-1" x="61.47" y="65.47" width="561.06" height="590.06" rx="55.35" ry="55.35"/><path d="M1107.18,230.94a54.94,54.94,0,0,1,54.88,54.88V765.18a54.94,54.94,0,0,1-54.88,54.88H656.82a54.94,54.94,0,0,1-54.88-54.88V285.82a54.94,54.94,0,0,1,54.88-54.88h450.36m0-.94H656.82A56,56,0,0,0,601,285.82V765.18A56,56,0,0,0,656.82,821h450.36A56,56,0,0,0,1163,765.18V285.82A56,56,0,0,0,1107.18,230Z" transform="translate(-540 -165)"/><path class="cls-2" d="M577.1,321.21a36.42,36.42,0,0,1-28.8-14.08c-3.83-4.89-6.78-70.84-7.8-105a36.64,36.64,0,0,1,36.6-36.58h609.8a36.64,36.64,0,0,1,36.6,36.6c-1,34-3.71,99.59-7.31,104.39a36.82,36.82,0,0,1-29.29,14.71Z" transform="translate(-540 -165)"/><path d="M1186.9,166a36.14,36.14,0,0,1,36.1,36.07c-1.11,39.46-3.94,99.76-7.21,104.12a36.33,36.33,0,0,1-28.89,14.52H577.1a35.93,35.93,0,0,1-28.41-13.89c-3.48-4.44-6.51-65.07-7.69-104.71A36.14,36.14,0,0,1,577.1,166h609.8m0-1H577.1A37.21,37.21,0,0,0,540,202.1s3,99,7.9,105.33a37.09,37.09,0,0,0,29.19,14.27h609.8a37.11,37.11,0,0,0,29.69-14.92c4.65-6.2,7.41-104.69,7.41-104.69a37.21,37.21,0,0,0-37.1-37.1Z" transform="translate(-540 -165)"/><path class="cls-3" d="M586,308.52c-11,0-21.17-4.33-28-11.87-3.71-4.1-6.56-59.63-7.55-88.42,0-17,15.94-30.76,35.54-30.76h592c19.59,0,35.54,13.8,35.54,30.77-.93,28.62-3.6,83.84-7.08,87.87-6.71,7.76-17.35,12.4-28.46,12.4Z" transform="translate(-540 -165)"/><path d="M1178,178c19.33,0,35.06,13.59,35.06,30.26-1.07,33.21-3.81,83.95-7,87.59C1199.46,303.47,1189,308,1178,308H586c-10.83,0-20.9-4.27-27.63-11.71-3.35-3.71-6.28-54.73-7.43-88.08C551,191.55,566.68,178,586,178h592m0-1H586c-19.81,0-36,14.06-36,31.25,0,0,2.87,83.41,7.67,88.73,6.61,7.31,16.87,12,28.34,12h592c11.75,0,22.23-4.95,28.82-12.56,4.51-5.22,7.2-88.19,7.2-88.19,0-17.19-16.21-31.25-36-31.25Z" transform="translate(-540 -165)"/><text class="cls-4" transform="translate(223.03 117.11)">MENÜ</text></svg>