<svg id="Ebene_1" data-name="Ebene 1" xmlns="http://www.w3.org/2000/svg" viewBox="0 0 356 65.08"><defs><style>.cls-1{fill:#fdc233;}.cls-2{fill:#f15a24;}.cls-3{font-size:39.2px;fill:#fff;stroke:#000;stroke-miterlimit:10;stroke-width:1.28px;font-family:ShowcardGothic-Reg, Showcard Gothic;}</style></defs><title>play_button</title><rect class="cls-1" x="1.91" y="1.91" width="352.17" height="61.25" rx="13.4" ry="13.4"/><path class="cls-2" d="M705.69,351.83a11.5,11.5,0,0,1,11.48,11.48v34.45a11.5,11.5,0,0,1-11.48,11.48H380.31a11.5,11.5,0,0,1-11.48-11.48V363.31a11.5,11.5,0,0,1,11.48-11.48H705.69m0-3.83H380.31A15.36,15.36,0,0,0,365,363.31v34.45a15.36,15.36,0,0,0,15.31,15.31H705.69A15.36,15.36,0,0,0,721,397.76V363.31A15.36,15.36,0,0,0,705.69,348Z" transform="translate(-365 -348)"/><text class="cls-3" transform="translate(138.64 46.9) scale(1.02 1)">PLAY</text></svg>